PathFileType	4	(X/Y/Z)	C:/Users/opensim2020/Desktop/walking_exp_matlab/subject01_walking13_straight_03.trc	
DataRate	CameraRate	NumFrames	NumMarkers	Units	OrigDataRate	OrigDataStartFrame	OrigNumFrames	
100.00	100.00	5	42	mm	100.00	1631	128	
Frame#	Time	LFHD			RFHD			LBHD			RBHD			C7			T10			CLAV			STRN			RBAK			LSHO			LUPA			LELB			LFRM			LWRA			LWRB			LFIN			RSHO			RUPA			RELB			RFRM			RWRA			RWRB			RFIN			LASI			RASI			LPSI			RPSI			LTHI			LKNE			LTIB			LANK			LHEE			LTOE			RTHI			RKNE			RTIB			RANK			RHEE			RTOE			*39			*40			*41			
		X1	Y1	Z1	X2	Y2	Z2	X3	Y3	Z3	X4	Y4	Z4	X5	Y5	Z5	X6	Y6	Z6	X7	Y7	Z7	X8	Y8	Z8	X9	Y9	Z9	X10	Y10	Z10	X11	Y11	Z11	X12	Y12	Z12	X13	Y13	Z13	X14	Y14	Z14	X15	Y15	Z15	X16	Y16	Z16	X17	Y17	Z17	X18	Y18	Z18	X19	Y19	Z19	X20	Y20	Z20	X21	Y21	Z21	X22	Y22	Z22	X23	Y23	Z23	X24	Y24	Z24	X25	Y25	Z25	X26	Y26	Z26	X27	Y27	Z27	X28	Y28	Z28	X29	Y29	Z29	X30	Y30	Z30	X31	Y31	Z31	X32	Y32	Z32	X33	Y33	Z33	X34	Y34	Z34	X35	Y35	Z35	X36	Y36	Z36	X37	Y37	Z37	X38	Y38	Z38	X39	Y39	Z39	X40	Y40	Z40	X41	Y41	Z41	X42	Y42	Z42	

33	0.320	-1147.46472	-359.07068	1670.80017	-1035.69702	-345.16776	1681.87866	-1136.56567	-471.37607	1618.13855	-1017.06927	-459.37271	1628.07251	-1088.46509	-492.80817	1432.96326	-1063.08289	-540.42169	1142.25452	-1075.90710	-348.25198	1363.70752	-1072.19226	-311.02283	1207.10938	-1000.91437	-557.53302	1246.23877	-1239.56262	-401.31888	1389.37109	-1328.21289	-428.61142	1210.97192	-1339.91113	-433.18533	1056.63867	-1357.11633	-353.52087	968.74237	-1329.22803	-235.78085	899.40411	-1355.59595	-281.14856	870.85034	-1368.16443	-209.63583	833.75909	-929.07501	-418.75488	1399.44153	-821.04608	-507.30313	1218.59521	-808.26007	-525.30872	1094.02820	-776.49762	-505.19171	973.39221	-798.30170	-431.83670	854.11060	-758.40082	-473.75882	855.80597	-751.36279	-432.43262	785.02289	-1162.77307	-365.10867	935.49194	-946.44348	-369.54330	937.58862	-1108.16309	-553.23486	945.80719	-962.78613	-550.65704	944.49707	-1213.55225	-398.28610	601.79761	-1195.46399	-407.33310	467.19507	-1201.58118	-470.38980	286.05133	-1145.67371	-507.04947	71.57098	-1092.13562	-552.12524	44.36765	-1155.96265	-360.67859	32.53934	-882.85791	-336.10138	611.71655	-902.49640	-294.92053	460.65915	-904.23987	-426.20877	345.19254	-953.54755	-556.09576	186.15948	-1009.95306	-613.38025	179.81342	-942.87885	-474.95587	69.96490	-1059.55969	-359.38095	1713.42432	-3102.14648	1973.02808	1023.81042	-3140.65259	2012.45911	1021.89380 
34	0.330	-1147.59924	-346.47806	1670.93738	-1035.84021	-332.56839	1681.65576	-1137.03699	-459.13925	1619.02124	-1017.47223	-447.15430	1628.56091	-1089.37012	-481.39322	1433.28125	-1064.67346	-529.77332	1142.72424	-1076.84583	-337.28903	1363.83899	-1073.36682	-300.35382	1207.25183	-1002.43341	-546.81903	1246.57324	-1240.48242	-390.20529	1390.17029	-1329.86792	-416.81305	1212.00342	-1342.68591	-419.35217	1057.72119	-1359.57153	-336.24658	972.86017	-1331.27600	-215.88208	908.45264	-1357.64026	-259.94992	878.00720	-1370.32971	-186.90883	844.08533	-930.00183	-407.98923	1399.44214	-822.88727	-497.86304	1218.75098	-810.41162	-516.58997	1094.51990	-777.91998	-499.58252	973.80963	-798.22266	-429.14371	852.45660	-758.81171	-471.92654	855.41138	-751.05176	-432.37280	783.53381	-1164.29333	-355.18121	935.52716	-948.14905	-358.80121	938.51489	-1108.98181	-542.94025	946.24640	-963.63538	-539.90759	945.07184	-1214.28088	-392.99588	601.63153	-1196.42188	-404.74933	467.11957	-1201.76941	-469.12506	286.61658	-1145.57336	-506.79199	72.13117	-1091.84534	-551.89880	45.37394	-1155.99939	-360.63644	32.47305	-884.26135	-321.06668	614.11322	-905.29492	-276.57721	463.41031	-906.55865	-402.55273	341.09604	-956.52991	-525.65680	177.25360	-1013.07794	-582.83093	167.27051	-945.38983	-438.12280	66.41322	-1059.59839	-346.53625	1713.37244	-3102.16113	1973.06067	1023.68341	-3140.62085	2012.48560	1021.91089 
35	0.340	-1147.73083	-333.93481	1670.96973	-1036.26953	-320.79474	1681.13391	-1137.35828	-446.88422	1619.67004	-1017.79742	-435.00058	1628.86584	-1090.23267	-470.25003	1433.60425	-1066.11353	-519.11627	1143.04053	-1078.11353	-326.24213	1363.89136	-1074.49744	-289.64206	1207.24780	-1003.88739	-535.99084	1246.68115	-1241.25964	-379.05496	1390.86487	-1331.42212	-405.07986	1212.90186	-1345.42188	-405.51105	1058.81348	-1361.88501	-319.20215	976.90350	-1333.13159	-196.38666	917.56891	-1359.68335	-239.20067	885.17963	-1372.64343	-164.78894	854.65833	-930.84247	-397.32718	1399.25916	-824.63513	-488.52905	1218.61340	-812.34290	-507.83752	1095.01343	-779.23071	-493.96603	974.22150	-798.06085	-426.28867	850.99231	-759.30414	-469.99384	855.29871	-750.83087	-432.17285	782.21069	-1165.73389	-345.12366	935.38434	-949.64276	-348.03348	939.22589	-1109.83716	-532.66333	946.43811	-964.39465	-529.18823	945.53516	-1215.01501	-387.58377	601.50903	-1197.29565	-401.76688	466.99817	-1201.88196	-467.49042	287.16962	-1145.40869	-506.53479	72.75108	-1091.47900	-551.59277	46.29818	-1155.94006	-360.51413	32.33214	-885.76135	-305.81720	616.24969	-908.32837	-258.94678	465.61560	-908.79224	-378.88904	336.68475	-959.44171	-494.56036	167.39157	-1016.21185	-550.32599	153.63739	-947.64111	-400.21246	62.90703	-1059.61487	-333.79877	1713.15063	-3102.04639	1973.15894	1023.73419	-3140.54443	2012.56226	1021.85986 
36	0.350	-1147.85889	-321.49777	1670.87769	-1035.96191	-307.65149	1680.86829	-1137.67529	-434.71655	1620.17456	-1018.08612	-422.94150	1629.03589	-1091.05676	-459.14133	1433.74524	-1067.42773	-508.45322	1143.25208	-1078.42419	-315.28290	1363.61621	-1075.54028	-278.93607	1207.08179	-1005.24042	-525.22186	1246.69641	-1242.00244	-367.83194	1391.44104	-1332.91565	-393.28903	1213.68494	-1348.04907	-391.63092	1059.85046	-1364.04883	-302.32425	980.98297	-1334.71558	-177.42569	926.58826	-1361.40027	-218.78929	892.56689	-1374.42053	-143.12326	865.21106	-931.65424	-386.35083	1398.97815	-826.15082	-478.74005	1218.76379	-814.52740	-498.85745	1095.11536	-780.48499	-488.10831	974.76477	-797.84320	-423.25000	849.72150	-759.72455	-466.85797	855.32880	-750.60492	-431.30930	781.12592	-1166.77283	-335.09512	934.99738	-951.02179	-337.30026	939.70044	-1110.63721	-522.38788	946.46307	-965.08710	-518.44537	945.67926	-1215.71033	-382.12598	601.27704	-1197.93738	-398.65146	466.89917	-1201.82971	-465.38486	287.62796	-1145.21277	-506.17648	73.49232	-1091.17395	-551.60889	47.66304	-1155.89294	-360.38190	32.27399	-887.02063	-290.66971	618.26495	-911.11810	-242.09244	467.53046	-911.16681	-355.32635	331.94165	-962.10651	-462.56470	157.47858	-1019.11688	-517.63733	140.31456	-949.40540	-361.67819	59.81427	-1059.63782	-321.17831	1712.87061	-3101.97949	1973.22461	1023.65485	-3140.63330	2012.50183	1021.95013 
37	0.360	-1147.91284	-309.09747	1670.60986	-1035.90552	-295.33209	1680.37915	-1137.91638	-422.62411	1620.46680	-1018.35254	-410.80676	1628.94543	-1091.76160	-447.90134	1433.88916	-1068.68616	-497.75110	1143.36914	-1079.07703	-304.21585	1363.30115	-1076.52808	-268.20200	1206.72705	-1006.50598	-514.32220	1246.59448	-1242.75537	-356.77206	1391.88623	-1334.24304	-381.43277	1214.31152	-1350.60352	-377.76035	1060.77832	-1366.28955	-285.54736	984.85822	-1336.13147	-158.87975	935.43500	-1362.97522	-198.79897	899.92700	-1375.77246	-122.15285	875.48297	-932.07025	-375.66086	1398.69238	-827.62433	-469.13876	1218.44629	-816.26373	-490.04703	1095.44299	-781.67133	-482.12704	975.19519	-797.67346	-419.98621	848.53967	-759.99774	-463.74854	855.27081	-750.48926	-430.75427	780.11346	-1168.03076	-326.31485	934.25507	-952.25824	-326.52380	939.96625	-1111.31531	-512.19525	946.29645	-965.72754	-507.79688	945.67230	-1216.32715	-376.66397	600.97760	-1198.46216	-395.07291	466.51239	-1201.72021	-462.99954	288.00015	-1144.98572	-505.84021	74.17748	-1090.79272	-551.17358	48.84426	-1155.83264	-360.14026	32.42707	-888.08936	-275.87262	620.09204	-913.72076	-225.88480	469.30914	-913.53638	-332.25159	327.17380	-964.72150	-429.76932	147.19035	-1021.85712	-483.85730	126.60725	-951.10498	-322.47980	57.01649	-1059.51355	-308.67267	1712.49658	-3102.11206	1973.02429	1024.14868	-3140.68262	2012.58105	1021.93066 
